# xmcd
#
# Track frame offsets:
#	150
#	16088
#	28451
#	48372
#	61028
#	81120
#	98677
#	111905
#	134006
#	156125
#	169665
#	179706
#	193031
#
# Disc length: 2803 seconds
#
# Revision: 1
# Processed by: cddbd v1.5.2PL0 Copyright (c) Steve Scherf et al.
# Submitted via: audiograbber 1.83.01
#
DISCID=ac0af10d
DTITLE=Georgios Bitzios - Hommage
DYEAR=2006
DGENRE=
TTITLE0=Aspri Mera
TTITLE1=Jamaika
TTITLE2=Sto Perigiali
TTITLE3=Anoixe to Parathyro
TTITLE4=Strosse to Stroma Sou
TTITLE5=T.Oneiero Kapnos
TTITLE6=Aprilis
TTITLE7=Kaumos
TTITLE8=Odos Oneiron
TTITLE9=Parapono
TTITLE10=Pou Tha Paei
TTITLE11=Gorgona
TTITLE12=Doxa to Theo
EXTD=
EXTT0=
EXTT1=
EXTT2=
EXTT3=
EXTT4=
EXTT5=
EXTT6=
EXTT7=
EXTT8=
EXTT9=
EXTT10=
EXTT11=
EXTT12=
PLAYORDER=
